<?xml version="1.0" encoding="utf-8"?>
<!-- Generator: Adobe Illustrator 16.0.0, SVG Export Plug-In . SVG Version: 6.00 Build 0)  -->
<!DOCTYPE svg PUBLIC "-//W3C//DTD SVG 1.1//EN" "http://www.w3.org/Graphics/SVG/1.1/DTD/svg11.dtd">
<svg version="1.1" id="Layer_1" xmlns="http://www.w3.org/2000/svg" xmlns:xlink="http://www.w3.org/1999/xlink" x="0px" y="0px"
	 width="4166.93px" height="3367.561px" viewBox="0 0 4166.93 3367.561" enable-background="new 0 0 4166.93 3367.561"
	 xml:space="preserve">
<g>
	<g>
		<path fill="#C9CACC" stroke="#C9CACC" stroke-miterlimit="10" d="M770.387,2691.334"/>
	</g>
	<g>
		<path fill="#C9CACC" stroke="#C9CACC" stroke-miterlimit="10" d="M1697.512,3348.34c-297.246,0-584.001-124.781-786.735-342.355
			l85.329-79.508c180.75,193.986,436.402,305.236,701.406,305.236c267.632,0,525.014-113.115,706.139-310.352l85.905,78.885
			C2286.398,3221.463,1997.707,3348.34,1697.512,3348.34z"/>
	</g>
	<g>
		<path fill="#C9CACC" stroke="#C9CACC" stroke-miterlimit="10" d="M2680.476,2676.477l-108.099-43.762
			c40.598-100.277,63.736-206.447,68.778-315.563c24.38-527.939-385.287-977.298-913.229-1001.694
			c-527.948-24.315-977.29,385.295-1001.681,913.239c-6.339,137.236,15.938,270.996,66.219,397.568l-108.39,43.051
			c-56.432-142.063-81.441-292.115-74.334-446c27.359-592.188,531.38-1051.897,1123.569-1024.356
			c592.176,27.356,1051.702,531.392,1024.344,1123.571C2752.009,2444.861,2726.041,2563.943,2680.476,2676.477z"/>
	</g>
	<g>
		<path fill="#C9CACC" stroke="#C9CACC" stroke-miterlimit="10" d="M1128.054,2632.521
			c-65.795-112.818-95.991-241.58-87.317-372.387c23.857-359.918,336.085-633.326,696.005-609.466
			c359.924,23.861,633.333,336.091,609.473,696.009c-7.938,119.682-48.385,234.563-116.977,332.256l-95.443-67.027
			c56.307-80.201,89.52-174.584,96.041-272.939c19.611-295.758-205.054-552.324-500.81-571.926
			c-295.75-19.611-552.311,205.057-571.919,500.809c-7.126,107.494,17.663,213.277,71.692,305.924L1128.054,2632.521z"/>
	</g>
	<g>
		<path fill="#C9CACC" stroke="#C9CACC" stroke-miterlimit="10" d="M2787.459,3291.955c-3.083,0-6.16-0.018-9.242-0.063
			c-198.93-2.834-383.4-94.424-506.134-251.277l91.854-71.867c100.876,128.92,252.48,204.197,415.941,206.531
			c124.205,1.832,246.115-39.912,343.016-117.365l72.819,91.1C3080.154,3241.381,2935.502,3291.955,2787.459,3291.955z"/>
	</g>
	<g>
		<path fill="#C9CACC" stroke="#C9CACC" stroke-miterlimit="10" d="M3323.041,3002.91l-96.641-65.291
			c60.039-88.855,91.771-192.771,91.779-300.5c0-296.406-241.144-537.545-537.55-537.545c-45.192,0-90.088,5.607-133.431,16.676
			l-28.858-112.996c52.767-13.475,107.371-20.309,162.289-20.309c360.715,0,654.175,293.459,654.175,654.174
			C3434.798,2768.211,3396.152,2894.699,3323.041,3002.91z"/>
	</g>
	<g>
		<path fill="#C9CACC" stroke="#C9CACC" stroke-miterlimit="10" d="M3600.105,3348.34c-0.032-0.006-0.076-0.006-0.139,0H450.453
			c-22.469,0-42.938-12.912-52.623-33.186c-9.682-20.271-6.852-44.313,7.271-61.785l394.345-487.855
			c11.072-13.697,27.742-21.652,45.351-21.652h2314.509c16.493,0,32.217,6.98,43.271,19.225l438.347,485.295
			c10.799,10.584,17.498,25.33,17.498,41.646C3658.422,3322.229,3632.316,3348.34,3600.105,3348.34z M572.571,3231.713h2896.138
			l-335.314-371.227H872.645L572.571,3231.713z"/>
	</g>
	<g>
		<path fill="#C9CACC" stroke="#C9CACC" stroke-miterlimit="10" d="M2083.227,97.321c0,36.154-29.306,65.454-65.453,65.454
			c-36.154,0-65.459-29.3-65.459-65.454c0-36.147,29.305-65.453,65.459-65.453C2053.92,31.868,2083.227,61.174,2083.227,97.321z"/>
		<path fill="#C9CACC" stroke="#C9CACC" stroke-miterlimit="10" d="M2017.773,184.642c-48.152,0-87.324-39.171-87.324-87.321
			c0-48.148,39.171-87.321,87.324-87.321c48.148,0,87.32,39.172,87.32,87.321C2105.094,145.47,2065.922,184.642,2017.773,184.642z
			 M2017.773,53.735c-24.036,0-43.592,19.554-43.592,43.585c0,24.031,19.557,43.586,43.592,43.586
			c24.033,0,43.585-19.556,43.585-43.586C2061.359,73.289,2041.806,53.735,2017.773,53.735z"/>
	</g>
	<g>
		<path fill="#C9CACC" stroke="#C9CACC" stroke-miterlimit="10" d="M2987.085,1708.078c0,36.154-29.306,65.453-65.453,65.453
			c-36.157,0-65.454-29.299-65.454-65.453c0-36.146,29.297-65.454,65.454-65.454
			C2957.779,1642.624,2987.085,1671.932,2987.085,1708.078z"/>
		<path fill="#C9CACC" stroke="#C9CACC" stroke-miterlimit="10" d="M2921.632,1795.4c-48.147,0-87.321-39.176-87.321-87.322
			c0-48.15,39.174-87.319,87.321-87.319c48.146,0,87.319,39.169,87.319,87.319C3008.951,1756.225,2969.777,1795.4,2921.632,1795.4z
			 M2921.632,1664.494c-24.032,0-43.585,19.554-43.585,43.584c0,24.031,19.553,43.586,43.585,43.586
			c24.031,0,43.585-19.555,43.585-43.586C2965.217,1684.047,2945.663,1664.494,2921.632,1664.494z"/>
	</g>
	<g>
		<path fill="#C9CACC" stroke="#C9CACC" stroke-miterlimit="10" d="M2622.626,1059.492c0,36.154-29.308,65.453-65.452,65.453
			c-36.154,0-65.453-29.299-65.453-65.453c0-36.148,29.299-65.454,65.453-65.454
			C2593.318,994.038,2622.626,1023.344,2622.626,1059.492z"/>
		<path fill="#C9CACC" stroke="#C9CACC" stroke-miterlimit="10" d="M2557.174,1146.812c-48.15,0-87.322-39.172-87.322-87.32
			c0-48.149,39.172-87.322,87.322-87.322c48.148,0,87.318,39.172,87.318,87.322
			C2644.492,1107.64,2605.322,1146.812,2557.174,1146.812z M2557.174,1015.906c-24.035,0-43.588,19.554-43.588,43.586
			c0,24.031,19.553,43.585,43.588,43.585c24.029,0,43.582-19.554,43.582-43.585
			C2600.756,1035.459,2581.203,1015.906,2557.174,1015.906z"/>
	</g>
	<g>
		<path fill="#C9CACC" stroke="#C9CACC" stroke-miterlimit="10" d="M2476.842,330.574c0,36.155-29.305,65.454-65.453,65.454
			c-36.154,0-65.452-29.299-65.452-65.454c0-36.146,29.298-65.453,65.452-65.453
			C2447.537,265.121,2476.842,294.428,2476.842,330.574z"/>
		<path fill="#C9CACC" stroke="#C9CACC" stroke-miterlimit="10" d="M2411.389,417.895c-48.148,0-87.32-39.172-87.32-87.321
			c0-48.147,39.172-87.32,87.32-87.32c48.149,0,87.32,39.173,87.32,87.32C2498.709,378.723,2459.538,417.895,2411.389,417.895z
			 M2411.389,286.988c-24.031,0-43.585,19.556-43.585,43.586c0,24.033,19.554,43.587,43.585,43.587s43.586-19.554,43.586-43.587
			C2454.975,306.543,2435.42,286.988,2411.389,286.988z"/>
	</g>
	<g>
		<path fill="#C9CACC" stroke="#C9CACC" stroke-miterlimit="10" d="M3643.109,1496.842c0,36.154-29.305,65.453-65.453,65.453
			c-36.154,0-65.453-29.299-65.453-65.453c0-36.147,29.299-65.454,65.453-65.454
			C3613.805,1431.388,3643.109,1460.695,3643.109,1496.842z"/>
		<path fill="#C9CACC" stroke="#C9CACC" stroke-miterlimit="10" d="M3577.656,1584.162c-48.15,0-87.32-39.172-87.32-87.32
			c0-48.148,39.17-87.322,87.32-87.322c48.148,0,87.32,39.173,87.32,87.322C3664.977,1544.99,3625.805,1584.162,3577.656,1584.162z
			 M3577.656,1453.257c-24.03,0-43.586,19.553-43.586,43.585c0,24.031,19.556,43.585,43.586,43.585
			c24.032,0,43.584-19.554,43.584-43.585C3621.24,1472.81,3601.688,1453.257,3577.656,1453.257z"/>
	</g>
	<g>
		<path fill="#C9CACC" stroke="#C9CACC" stroke-miterlimit="10" d="M3351.542,1205.275c0,36.154-29.305,65.453-65.453,65.453
			c-36.153,0-65.452-29.299-65.452-65.453c0-36.147,29.299-65.454,65.452-65.454
			C3322.237,1139.821,3351.542,1169.128,3351.542,1205.275z"/>
		<path fill="#C9CACC" stroke="#C9CACC" stroke-miterlimit="10" d="M3286.089,1292.595c-48.149,0-87.32-39.172-87.32-87.32
			s39.171-87.321,87.32-87.321s87.32,39.173,87.32,87.321S3334.238,1292.595,3286.089,1292.595z M3286.089,1161.689
			c-24.032,0-43.587,19.554-43.587,43.585s19.555,43.586,43.587,43.586s43.586-19.554,43.586-43.586
			S3310.121,1161.689,3286.089,1161.689z"/>
	</g>
	<g>
		<path fill="#C9CACC" stroke="#C9CACC" stroke-miterlimit="10" d="M2768.408,622.141c0,36.155-29.306,65.454-65.453,65.454
			c-36.152,0-65.453-29.299-65.453-65.454c0-36.146,29.301-65.453,65.453-65.453
			C2739.103,556.688,2768.408,585.995,2768.408,622.141z"/>
		<path fill="#C9CACC" stroke="#C9CACC" stroke-miterlimit="10" d="M2702.955,709.462c-48.148,0-87.32-39.172-87.32-87.321
			c0-48.147,39.172-87.32,87.32-87.32c48.149,0,87.32,39.173,87.32,87.32C2790.275,670.29,2751.104,709.462,2702.955,709.462z
			 M2702.955,578.555c-24.031,0-43.586,19.555-43.586,43.585c0,24.032,19.555,43.586,43.586,43.586s43.586-19.554,43.586-43.586
			C2746.541,598.11,2726.986,578.555,2702.955,578.555z"/>
	</g>
	<g>
		<path fill="#C9CACC" stroke="#C9CACC" stroke-miterlimit="10" d="M3059.975,913.708c0,36.154-29.305,65.453-65.453,65.453
			c-36.154,0-65.451-29.299-65.451-65.453c0-36.146,29.297-65.454,65.451-65.454C3030.67,848.254,3059.975,877.562,3059.975,913.708
			z"/>
		<path fill="#C9CACC" stroke="#C9CACC" stroke-miterlimit="10" d="M2994.521,1001.028c-48.148,0-87.32-39.172-87.32-87.32
			c0-48.147,39.172-87.32,87.32-87.32c48.149,0,87.32,39.173,87.32,87.32C3081.842,961.856,3042.671,1001.028,2994.521,1001.028z
			 M2994.521,870.122c-24.031,0-43.585,19.554-43.585,43.586c0,24.032,19.554,43.586,43.585,43.586
			c24.033,0,43.586-19.554,43.586-43.586C3038.107,889.676,3018.555,870.122,2994.521,870.122z"/>
	</g>
	<g>
		<path fill="#C9CACC" stroke="#C9CACC" stroke-miterlimit="10" d="M2768.408,1351.058c0,36.154-29.306,65.453-65.453,65.453
			c-36.152,0-65.453-29.299-65.453-65.453c0-36.146,29.301-65.454,65.453-65.454
			C2739.103,1285.604,2768.408,1314.912,2768.408,1351.058z"/>
		<path fill="#C9CACC" stroke="#C9CACC" stroke-miterlimit="10" d="M2702.955,1438.378c-48.148,0-87.32-39.172-87.32-87.32
			c0-48.148,39.172-87.32,87.32-87.32c48.149,0,87.32,39.172,87.32,87.32C2790.275,1399.206,2751.104,1438.378,2702.955,1438.378z
			 M2702.955,1307.473c-24.031,0-43.586,19.554-43.586,43.585c0,24.032,19.555,43.586,43.586,43.586s43.586-19.554,43.586-43.586
			C2746.541,1327.027,2726.986,1307.473,2702.955,1307.473z"/>
	</g>
	<g>
		<path fill="#C9CACC" stroke="#C9CACC" stroke-miterlimit="10" d="M1768.465,753.047c0,36.154-29.306,65.453-65.452,65.453
			c-36.155,0-65.453-29.299-65.453-65.453c0-36.147,29.298-65.453,65.453-65.453C1739.159,687.595,1768.465,716.9,1768.465,753.047z
			"/>
		<path fill="#C9CACC" stroke="#C9CACC" stroke-miterlimit="10" d="M1703.013,840.367c-48.149,0-87.321-39.171-87.321-87.32
			c0-48.149,39.172-87.32,87.321-87.32c48.147,0,87.319,39.171,87.319,87.32C1790.332,801.196,1751.16,840.367,1703.013,840.367z
			 M1703.013,709.462c-24.032,0-43.586,19.553-43.586,43.585c0,24.031,19.554,43.585,43.586,43.585
			c24.03,0,43.584-19.555,43.584-43.585C1746.597,729.015,1727.043,709.462,1703.013,709.462z"/>
	</g>
	<g>
		<path fill="#C9CACC" stroke="#C9CACC" stroke-miterlimit="10" d="M1607.024,1044.615c0,36.153-29.306,65.452-65.453,65.452
			c-36.154,0-65.453-29.299-65.453-65.452c0-36.148,29.299-65.454,65.453-65.454
			C1577.718,979.161,1607.024,1008.467,1607.024,1044.615z"/>
		<path fill="#C9CACC" stroke="#C9CACC" stroke-miterlimit="10" d="M1541.571,1131.934c-48.148,0-87.32-39.171-87.32-87.319
			c0-48.149,39.172-87.321,87.32-87.321c48.149,0,87.32,39.171,87.32,87.321C1628.891,1092.763,1589.72,1131.934,1541.571,1131.934z
			 M1541.571,1001.028c-24.031,0-43.585,19.554-43.585,43.586c0,24.03,19.554,43.585,43.585,43.585
			c24.032,0,43.586-19.556,43.586-43.585C1585.157,1020.583,1565.604,1001.028,1541.571,1001.028z"/>
	</g>
	<g>
		<path fill="#C9CACC" stroke="#C9CACC" stroke-miterlimit="10" d="M2083.227,979.161c0,36.154-29.306,65.454-65.453,65.454
			c-36.154,0-65.454-29.299-65.454-65.454c0-36.147,29.3-65.453,65.454-65.453C2053.92,913.708,2083.227,943.014,2083.227,979.161z"
			/>
		<path fill="#C9CACC" stroke="#C9CACC" stroke-miterlimit="10" d="M2017.773,1066.481c-48.148,0-87.32-39.173-87.32-87.32
			c0-48.149,39.172-87.321,87.32-87.321s87.32,39.172,87.32,87.321C2105.094,1027.309,2065.922,1066.481,2017.773,1066.481z
			 M2017.773,935.576c-24.031,0-43.585,19.554-43.585,43.585c0,24.031,19.554,43.585,43.585,43.585
			c24.033,0,43.585-19.555,43.585-43.585C2061.359,955.129,2041.806,935.576,2017.773,935.576z"/>
	</g>
	<g>
		<path fill="#C9CACC" stroke="#C9CACC" stroke-miterlimit="10" d="M2083.227,687.595c0,36.154-29.306,65.453-65.453,65.453
			c-36.154,0-65.454-29.299-65.454-65.453c0-36.147,29.3-65.454,65.454-65.454C2053.92,622.141,2083.227,651.448,2083.227,687.595z"
			/>
		<path fill="#C9CACC" stroke="#C9CACC" stroke-miterlimit="10" d="M2017.773,774.915c-48.148,0-87.32-39.172-87.32-87.32
			c0-48.149,39.172-87.322,87.32-87.322s87.32,39.172,87.32,87.322C2105.094,735.743,2065.922,774.915,2017.773,774.915z
			 M2017.773,644.009c-24.031,0-43.585,19.553-43.585,43.585c0,24.03,19.554,43.585,43.585,43.585
			c24.033,0,43.585-19.556,43.585-43.585C2061.359,663.563,2041.806,644.009,2017.773,644.009z"/>
	</g>
	<g>
		<path fill="#C9CACC" stroke="#C9CACC" stroke-miterlimit="10" d="M2083.227,396.027c0,36.155-29.306,65.454-65.453,65.454
			c-36.154,0-65.454-29.299-65.454-65.454c0-36.146,29.3-65.454,65.454-65.454C2053.92,330.574,2083.227,359.881,2083.227,396.027z"
			/>
		<path fill="#C9CACC" stroke="#C9CACC" stroke-miterlimit="10" d="M2017.773,483.348c-48.148,0-87.32-39.173-87.32-87.321
			c0-48.148,39.172-87.321,87.32-87.321s87.32,39.172,87.32,87.321C2105.094,444.175,2065.922,483.348,2017.773,483.348z
			 M2017.773,352.442c-24.031,0-43.585,19.554-43.585,43.585c0,24.031,19.554,43.586,43.585,43.586
			c24.033,0,43.585-19.556,43.585-43.586C2061.359,371.996,2041.806,352.442,2017.773,352.442z"/>
	</g>
	<g>
		<path fill="#C9CACC" stroke="#C9CACC" stroke-miterlimit="10" d="M2433.256,745.758c0,36.153-29.305,65.452-65.452,65.452
			c-36.153,0-65.453-29.299-65.453-65.452c0-36.147,29.3-65.453,65.453-65.453C2403.951,680.306,2433.256,709.611,2433.256,745.758z
			"/>
		<path fill="#C9CACC" stroke="#C9CACC" stroke-miterlimit="10" d="M2367.804,833.079c-48.149,0-87.321-39.172-87.321-87.32
			c0-48.149,39.172-87.32,87.321-87.32c48.147,0,87.319,39.171,87.319,87.32C2455.123,793.907,2415.951,833.079,2367.804,833.079z
			 M2367.804,702.173c-24.032,0-43.585,19.553-43.585,43.585c0,24.03,19.553,43.585,43.585,43.585
			c24.029,0,43.585-19.555,43.585-43.585C2411.389,721.727,2391.833,702.173,2367.804,702.173z"/>
	</g>
	<g>
		<path fill="#C9CACC" stroke="#C9CACC" stroke-miterlimit="10" d="M647.11,1496.842c0,36.154-29.306,65.453-65.453,65.453
			c-36.154,0-65.453-29.299-65.453-65.453c0-36.147,29.299-65.454,65.453-65.454C617.805,1431.388,647.11,1460.695,647.11,1496.842z
			"/>
		<path fill="#C9CACC" stroke="#C9CACC" stroke-miterlimit="10" d="M581.658,1584.162c-48.148,0-87.321-39.172-87.321-87.32
			c0-48.148,39.172-87.322,87.321-87.322c48.149,0,87.32,39.173,87.32,87.322C668.978,1544.99,629.807,1584.162,581.658,1584.162z
			 M581.658,1453.257c-24.032,0-43.585,19.553-43.585,43.585c0,24.031,19.554,43.585,43.585,43.585s43.585-19.554,43.585-43.585
			C625.243,1472.81,605.689,1453.257,581.658,1453.257z"/>
	</g>
	<g>
		<path fill="#C9CACC" stroke="#C9CACC" stroke-miterlimit="10" d="M901.292,1205.275c0,36.154-29.306,65.453-65.453,65.453
			c-36.154,0-65.453-29.299-65.453-65.453c0-36.147,29.299-65.454,65.453-65.454
			C871.986,1139.821,901.292,1169.128,901.292,1205.275z"/>
		<path fill="#C9CACC" stroke="#C9CACC" stroke-miterlimit="10" d="M835.839,1292.595c-48.149,0-87.322-39.172-87.322-87.32
			s39.173-87.321,87.322-87.321c48.149,0,87.32,39.173,87.32,87.321S883.989,1292.595,835.839,1292.595z M835.839,1161.689
			c-24.032,0-43.585,19.554-43.585,43.585s19.553,43.586,43.585,43.586c24.031,0,43.585-19.554,43.585-43.586
			S859.87,1161.689,835.839,1161.689z"/>
	</g>
	<g>
		<path fill="#C9CACC" stroke="#C9CACC" stroke-miterlimit="10" d="M1172.607,913.708c0,36.154-29.306,65.453-65.454,65.453
			c-36.154,0-65.453-29.299-65.453-65.453c0-36.146,29.299-65.454,65.453-65.454
			C1143.302,848.254,1172.607,877.562,1172.607,913.708z"/>
		<path fill="#C9CACC" stroke="#C9CACC" stroke-miterlimit="10" d="M1107.154,1001.028c-48.148,0-87.321-39.172-87.321-87.32
			c0-48.147,39.173-87.32,87.321-87.32c48.149,0,87.32,39.173,87.32,87.32C1194.474,961.856,1155.303,1001.028,1107.154,1001.028z
			 M1107.154,870.122c-24.031,0-43.585,19.554-43.585,43.586c0,24.032,19.554,43.586,43.585,43.586
			c24.032,0,43.586-19.554,43.586-43.586C1150.74,889.676,1131.186,870.122,1107.154,870.122z"/>
	</g>
	<g>
		<path fill="#C9CACC" stroke="#C9CACC" stroke-miterlimit="10" d="M1468.676,629.581c0,36.154-29.306,65.453-65.453,65.453
			c-36.153,0-65.453-29.299-65.453-65.453c0-36.147,29.299-65.453,65.453-65.453C1439.37,564.127,1468.676,593.433,1468.676,629.581
			z"/>
		<path fill="#C9CACC" stroke="#C9CACC" stroke-miterlimit="10" d="M1403.223,716.9c-48.149,0-87.32-39.172-87.32-87.32
			c0-48.149,39.171-87.322,87.32-87.322c48.148,0,87.322,39.172,87.322,87.322C1490.545,677.729,1451.372,716.9,1403.223,716.9z
			 M1403.223,585.995c-24.031,0-43.585,19.553-43.585,43.586c0,24.03,19.555,43.585,43.585,43.585
			c24.032,0,43.584-19.555,43.584-43.585C1446.808,605.548,1427.255,585.995,1403.223,585.995z"/>
	</g>
	<g>
		<path fill="#C9CACC" stroke="#C9CACC" stroke-miterlimit="10" d="M1762.966,323.135c0,36.153-29.306,65.453-65.455,65.453
			c-36.153,0-65.452-29.3-65.452-65.453c0-36.147,29.299-65.452,65.452-65.452C1733.66,257.683,1762.966,286.988,1762.966,323.135z"
			/>
		<path fill="#C9CACC" stroke="#C9CACC" stroke-miterlimit="10" d="M1697.512,410.457c-48.147,0-87.319-39.172-87.319-87.321
			c0-48.148,39.172-87.32,87.319-87.32c48.149,0,87.321,39.172,87.321,87.32C1784.833,371.285,1745.661,410.457,1697.512,410.457z
			 M1697.512,279.55c-24.03,0-43.584,19.555-43.584,43.585c0,24.033,19.554,43.586,43.584,43.586
			c24.033,0,43.586-19.553,43.586-43.586C1741.098,299.105,1721.544,279.55,1697.512,279.55z"/>
	</g>
</g>
</svg>
